<svg xmlns="http://www.w3.org/2000/svg" width="2961pt" height="530pt" viewBox="0 0 2961 530"><g id="#ffffffff"></g><g id="#020303ff"><path fill="#020303" opacity="1.00" d=" M 1315.37 19.49 C 1320.76 19.47 1326.14 19.44 1331.54 19.50 C 1333.26 21.43 1336.11 23.06 1335.55 26.07 C 1335.54 185.69 1335.56 345.32 1335.53 504.94 C 1336.06 507.88 1333.40 509.75 1331.41 511.38 C 1326.46 511.65 1321.48 511.64 1316.54 511.40 C 1312.38 509.40 1310.94 504.29 1311.62 500.01 C 1312.90 494.09 1312.26 488.01 1312.40 482.00 C 1312.39 336.33 1312.42 190.65 1312.39 44.98 C 1311.29 39.34 1311.58 33.59 1311.58 27.88 C 1311.42 24.66 1313.36 21.83 1315.37 19.49 Z"></path><path fill="#020303" opacity="1.00" d=" M 1705.63 33.77 C 1710.38 33.51 1716.10 32.25 1719.82 36.09 C 1722.05 38.44 1723.56 41.72 1723.46 45.01 C 1723.44 86.67 1723.45 128.33 1723.45 170.00 C 1723.58 174.88 1722.60 180.25 1725.78 184.45 C 1729.08 190.30 1737.39 187.87 1741.44 192.93 C 1741.52 196.53 1742.00 200.22 1741.22 203.78 C 1739.22 206.27 1736.47 208.75 1733.07 208.54 C 1727.49 208.60 1721.89 208.76 1716.33 208.40 C 1706.37 205.63 1698.51 195.53 1699.43 185.04 C 1699.52 137.68 1699.44 90.32 1699.47 42.96 C 1698.97 38.82 1702.63 35.92 1705.63 33.77 Z"></path><path fill="#020303" opacity="1.00" d=" M 1768.14 33.54 C 1771.27 33.43 1774.44 33.37 1777.59 33.64 C 1781.11 35.38 1785.00 38.70 1784.54 43.05 C 1784.60 87.72 1784.54 132.38 1784.57 177.05 C 1784.91 181.58 1787.02 187.14 1791.95 188.33 C 1796.18 189.32 1800.91 190.25 1803.30 194.35 C 1803.48 197.73 1804.49 201.94 1801.60 204.49 C 1799.77 206.39 1797.66 208.72 1794.79 208.52 C 1789.05 208.63 1783.30 208.72 1777.57 208.42 C 1769.30 206.42 1762.74 199.22 1761.31 190.83 C 1758.71 182.78 1759.60 174.31 1759.49 166.00 C 1759.49 125.31 1759.49 84.62 1759.48 43.92 C 1759.16 39.00 1763.25 34.11 1768.14 33.54 Z"></path><path fill="#020303" opacity="1.00" d=" M 1832.43 38.64 C 1835.90 38.05 1839.25 39.43 1842.29 40.96 C 1848.82 44.51 1851.73 53.59 1847.76 60.06 C 1845.94 64.40 1841.57 66.71 1837.38 68.22 C 1828.55 70.05 1818.67 62.29 1819.48 53.03 C 1819.32 45.83 1825.55 39.77 1832.43 38.64 Z"></path><path fill="#020303" opacity="1.00" d=" M 2563.17 54.68 C 2566.06 54.50 2569.48 53.80 2571.88 55.92 C 2574.93 58.22 2576.84 62.06 2576.50 65.91 C 2576.64 71.70 2576.14 77.52 2576.74 83.29 C 2577.72 84.88 2579.14 86.13 2580.42 87.50 C 2586.97 87.64 2593.53 87.59 2600.09 87.55 C 2604.64 87.26 2609.36 89.95 2611.44 94.01 C 2611.43 97.30 2612.44 101.25 2609.95 103.91 C 2608.21 105.85 2605.78 107.69 2603.06 107.52 C 2595.89 107.70 2588.71 107.24 2581.57 107.70 C 2578.83 109.11 2576.11 111.75 2576.50 115.08 C 2576.48 135.35 2576.41 155.63 2576.53 175.91 C 2577.16 181.63 2580.61 187.63 2586.53 189.19 C 2591.96 191.75 2597.85 189.81 2603.36 188.61 C 2606.96 187.73 2610.91 189.55 2612.42 192.95 C 2612.37 196.50 2613.65 200.89 2610.69 203.61 C 2605.92 209.09 2597.91 209.11 2591.24 209.75 C 2584.67 211.68 2578.00 209.42 2571.67 207.74 C 2566.76 206.47 2562.70 203.26 2559.39 199.54 C 2554.91 195.21 2553.47 188.79 2552.57 182.86 C 2552.40 160.60 2552.57 138.34 2552.48 116.09 C 2552.82 112.51 2550.09 109.61 2547.38 107.70 C 2543.96 107.29 2540.50 107.73 2537.11 107.36 C 2534.94 106.31 2533.34 104.48 2531.53 102.98 C 2531.35 100.31 2531.35 97.64 2531.50 94.98 C 2534.92 91.27 2539.86 89.10 2544.96 89.51 C 2550.00 90.14 2554.22 84.83 2553.63 80.00 C 2555.09 74.47 2553.62 68.56 2555.81 63.19 C 2556.83 59.42 2559.74 56.43 2563.17 54.68 Z"></path><path fill="#020303" opacity="1.00" d=" M 2370.60 85.46 C 2377.07 84.19 2383.83 84.10 2390.32 85.43 C 2397.98 85.29 2405.24 88.58 2411.59 92.63 C 2419.04 96.91 2422.14 105.69 2423.77 113.67 C 2424.78 117.02 2424.42 120.55 2424.50 124.00 C 2424.48 148.35 2424.47 172.70 2424.51 197.05 C 2425.02 202.97 2419.34 207.50 2414.00 208.45 C 2409.29 207.77 2405.75 204.35 2402.23 201.48 C 2399.19 201.23 2395.88 201.00 2393.23 202.76 C 2380.59 209.68 2365.17 214.63 2351.04 209.48 C 2339.09 205.93 2329.21 195.37 2327.58 182.87 C 2327.70 175.61 2326.43 167.95 2329.70 161.15 C 2335.94 147.17 2351.16 138.08 2366.37 138.43 C 2372.67 138.52 2379.00 138.20 2385.31 138.63 C 2389.77 139.99 2394.48 139.56 2399.09 139.39 C 2402.31 132.76 2402.04 125.09 2400.01 118.14 C 2398.09 109.79 2389.38 104.19 2381.04 104.52 C 2375.50 104.58 2369.95 104.34 2364.43 104.66 C 2358.28 105.70 2352.13 106.89 2346.22 108.89 C 2343.76 109.86 2341.09 109.40 2338.55 109.47 C 2336.90 107.15 2334.19 105.05 2334.50 101.92 C 2334.40 95.88 2339.93 91.43 2345.33 89.87 C 2353.55 87.52 2361.94 85.05 2370.60 85.46 M 2369.57 155.22 C 2365.08 156.29 2360.30 157.58 2357.01 161.01 C 2354.56 163.70 2353.05 167.10 2351.91 170.51 C 2350.42 176.49 2352.68 182.88 2356.56 187.49 C 2362.98 193.43 2372.66 193.56 2380.60 191.03 C 2387.36 188.96 2394.86 186.53 2399.20 180.55 C 2402.29 176.27 2401.37 170.87 2401.45 165.93 C 2401.54 162.13 2399.36 157.88 2395.46 156.87 C 2387.05 154.76 2378.14 153.53 2369.57 155.22 Z"></path><path fill="#020303" opacity="1.00" d=" M 1504.42 85.75 C 1511.91 85.04 1519.53 83.54 1527.01 85.34 C 1533.19 85.41 1539.19 87.27 1544.97 89.35 C 1549.34 90.86 1552.32 94.89 1553.39 99.28 C 1553.74 102.51 1551.10 104.97 1549.45 107.46 C 1543.26 108.40 1537.50 105.98 1531.60 104.64 C 1525.05 104.26 1518.49 104.27 1511.94 104.43 C 1506.52 104.36 1501.87 108.12 1498.72 112.22 C 1498.16 115.66 1498.16 119.26 1498.74 122.71 C 1501.04 127.14 1504.86 130.78 1509.42 132.82 C 1520.46 138.06 1532.48 141.04 1543.15 147.11 C 1551.48 151.51 1558.20 159.61 1559.45 169.12 C 1559.58 173.33 1559.64 177.55 1559.42 181.76 C 1556.97 193.41 1548.22 203.37 1537.14 207.62 C 1531.01 209.81 1524.64 211.90 1518.06 211.54 C 1508.23 211.79 1498.29 211.67 1488.80 208.79 C 1483.00 207.15 1475.73 205.39 1473.58 198.95 C 1473.35 196.38 1473.28 193.78 1473.70 191.23 C 1474.78 189.94 1475.96 188.73 1477.12 187.48 C 1479.80 187.47 1482.58 187.22 1485.13 188.31 C 1490.15 190.16 1495.49 190.61 1500.69 191.74 C 1505.70 193.03 1510.93 192.29 1516.06 192.49 C 1523.79 192.85 1531.58 188.72 1535.34 181.89 C 1535.72 178.99 1535.69 176.04 1535.44 173.13 C 1533.98 168.95 1531.08 165.19 1527.10 163.15 C 1512.72 155.99 1495.62 153.74 1483.43 142.57 C 1479.20 138.51 1476.63 133.02 1474.76 127.54 C 1474.19 124.05 1474.50 120.49 1474.42 116.96 C 1473.76 108.42 1478.81 100.47 1485.01 95.01 C 1490.57 90.36 1497.42 87.44 1504.42 85.75 Z"></path><path fill="#020303" opacity="1.00" d=" M 1930.58 85.82 C 1938.30 85.22 1946.19 83.35 1953.88 85.42 C 1961.88 87.13 1970.23 91.01 1974.28 98.53 C 1976.95 103.61 1979.91 109.02 1979.57 114.95 C 1979.53 143.50 1979.82 172.06 1979.43 200.60 C 1976.58 211.49 1957.93 210.89 1955.54 199.93 C 1955.31 175.00 1955.66 150.06 1955.38 125.13 C 1954.37 119.32 1953.08 112.83 1948.19 108.96 C 1941.99 103.98 1933.43 103.57 1925.99 105.39 C 1918.66 106.81 1911.38 109.06 1905.10 113.16 C 1901.96 115.41 1899.08 118.91 1899.50 123.00 C 1899.50 147.70 1899.49 172.40 1899.53 197.10 C 1899.97 201.62 1896.64 205.77 1892.60 207.41 C 1888.22 209.45 1882.98 208.45 1879.00 205.98 C 1876.09 203.65 1874.43 199.79 1874.54 196.10 C 1874.56 164.03 1874.56 131.97 1874.54 99.90 C 1873.84 91.91 1882.55 85.13 1890.07 88.05 C 1893.81 89.98 1896.36 93.50 1899.18 96.52 C 1901.50 96.53 1904.03 96.90 1906.01 95.34 C 1913.48 90.58 1922.06 88.00 1930.58 85.82 Z"></path><path fill="#020303" opacity="1.00" d=" M 2013.67 103.55 C 2021.67 91.17 2036.60 84.82 2050.98 84.53 C 2060.59 84.45 2070.17 86.80 2078.44 91.79 C 2081.01 93.63 2084.19 94.00 2087.28 93.52 C 2090.97 91.65 2093.91 87.88 2098.26 87.54 C 2104.02 86.76 2110.08 92.01 2109.54 97.94 C 2109.54 135.96 2109.57 173.99 2109.54 212.01 C 2109.78 216.68 2107.95 221.07 2106.58 225.43 C 2101.11 242.17 2085.79 255.30 2068.34 257.88 C 2060.67 259.76 2052.78 259.57 2044.95 259.38 C 2035.31 258.04 2025.38 256.72 2016.65 252.12 C 2013.74 250.67 2012.73 247.30 2011.77 244.46 C 2010.68 240.80 2013.30 237.66 2014.89 234.62 C 2017.12 234.57 2019.39 234.26 2021.64 234.66 C 2028.09 236.56 2034.63 238.32 2041.27 239.42 C 2049.24 239.22 2057.57 240.67 2065.19 237.64 C 2074.49 235.02 2081.81 227.02 2084.09 217.70 C 2086.13 212.17 2085.43 206.24 2085.45 200.48 C 2084.94 199.95 2083.92 198.89 2083.41 198.36 C 2078.90 197.59 2075.11 199.88 2071.32 201.88 C 2057.06 208.34 2039.69 207.84 2026.29 199.48 C 2012.08 191.09 2004.63 174.69 2002.56 158.86 C 2002.40 150.92 2002.48 142.99 2002.52 135.06 C 2003.43 123.83 2006.90 112.67 2013.67 103.55 M 2048.17 105.58 C 2043.17 107.13 2038.43 110.09 2035.17 114.24 C 2030.96 119.16 2029.41 125.58 2028.18 131.77 C 2025.86 140.42 2025.71 149.73 2028.07 158.39 C 2029.21 163.81 2030.67 169.30 2033.77 173.98 C 2037.37 179.79 2043.53 183.84 2050.08 185.47 C 2057.38 185.33 2065.22 186.91 2072.01 183.47 C 2077.43 181.15 2083.75 177.98 2085.45 171.89 C 2085.62 153.97 2085.67 136.02 2085.43 118.10 C 2083.96 113.20 2079.18 109.83 2074.61 107.92 C 2066.36 104.00 2056.98 105.52 2048.17 105.58 Z"></path><path fill="#020303" opacity="1.00" d=" M 1609.89 87.41 C 1617.88 84.22 1626.64 85.74 1635.03 85.39 C 1646.03 84.61 1657.16 89.31 1664.61 97.40 C 1671.49 103.90 1674.88 113.24 1676.40 122.39 C 1676.52 129.80 1676.61 137.22 1676.36 144.62 C 1675.47 148.63 1672.85 153.94 1668.00 153.53 C 1646.98 153.55 1625.95 153.50 1604.93 153.52 C 1602.27 153.18 1600.45 155.45 1598.45 156.76 C 1597.51 165.03 1600.79 173.06 1605.37 179.79 C 1610.34 186.80 1618.80 190.24 1627.08 191.39 C 1635.90 193.93 1644.97 191.46 1653.80 190.29 C 1659.47 188.90 1664.98 186.42 1670.98 187.55 C 1674.65 190.52 1673.83 195.72 1673.21 199.82 C 1669.50 206.36 1661.47 207.51 1654.89 209.35 C 1643.69 212.66 1631.91 211.40 1620.41 211.36 C 1611.40 209.53 1602.29 206.83 1594.74 201.40 C 1588.58 196.35 1583.02 190.29 1579.91 182.86 C 1576.98 175.57 1573.73 168.01 1574.45 159.97 C 1573.53 152.99 1572.75 145.78 1574.27 138.80 C 1574.76 135.17 1574.04 131.38 1575.28 127.85 C 1577.85 117.57 1582.16 107.38 1589.95 99.95 C 1595.23 93.95 1602.42 90.03 1609.89 87.41 M 1626.53 103.48 C 1621.53 103.11 1616.88 105.37 1612.61 107.68 C 1604.72 111.99 1600.93 120.84 1598.65 129.10 C 1597.40 133.27 1601.79 136.61 1605.44 137.33 C 1618.98 137.51 1632.53 137.34 1646.08 137.42 C 1649.17 137.74 1652.21 135.68 1653.17 132.73 C 1655.79 127.80 1653.40 122.21 1651.84 117.34 C 1649.15 110.08 1642.18 105.43 1634.92 103.63 C 1632.12 103.38 1629.32 103.51 1626.53 103.48 Z"></path><path fill="#020303" opacity="1.00" d=" M 2236.13 90.92 C 2242.01 88.11 2248.25 85.12 2254.94 85.47 C 2261.48 85.58 2268.09 85.10 2274.61 85.79 C 2284.44 89.04 2293.81 94.80 2299.74 103.47 C 2304.77 111.35 2309.58 120.12 2309.66 129.69 C 2311.34 135.33 2311.77 141.19 2312.46 146.99 C 2311.71 152.50 2311.45 158.11 2309.73 163.44 C 2309.78 170.96 2306.23 177.78 2303.03 184.38 C 2297.29 196.92 2285.54 206.57 2272.01 209.42 C 2266.74 210.50 2261.35 212.43 2255.97 210.98 C 2250.40 209.43 2244.51 209.02 2239.21 206.62 C 2235.12 204.88 2231.25 202.18 2226.64 202.25 C 2223.58 205.48 2224.64 209.99 2224.50 214.00 C 2224.49 224.34 2224.45 234.68 2224.52 245.02 C 2225.48 251.25 2219.21 257.45 2213.00 256.51 C 2208.07 257.02 2202.76 254.27 2200.84 249.62 C 2198.71 242.98 2199.69 235.84 2199.83 228.99 C 2201.72 223.34 2198.43 217.62 2200.15 211.99 C 2200.82 208.66 2200.19 205.29 2199.65 202.01 C 2199.07 197.96 2200.64 194.05 2200.41 190.01 C 2200.23 184.01 2200.88 177.94 2199.66 172.02 C 2198.79 166.96 2201.32 161.97 2199.91 156.98 C 2199.34 152.68 2199.54 148.31 2199.75 143.99 C 2200.73 140.37 2200.41 136.64 2199.67 133.01 C 2199.52 122.31 2199.66 111.61 2199.59 100.90 C 2199.49 95.57 2202.02 89.76 2207.50 88.09 C 2214.04 85.60 2219.08 91.89 2223.75 95.42 C 2228.50 96.58 2232.14 92.76 2236.13 90.92 M 2249.43 104.78 C 2240.34 107.01 2229.08 109.20 2224.75 118.63 C 2224.17 136.72 2224.66 154.88 2224.50 173.00 C 2224.06 177.37 2227.34 180.91 2230.54 183.41 C 2236.82 187.70 2244.33 189.78 2251.77 190.98 C 2255.60 192.04 2259.47 190.41 2263.27 189.80 C 2272.32 187.81 2279.66 180.76 2282.73 172.10 C 2284.85 165.63 2286.87 158.92 2286.57 152.03 C 2286.40 144.86 2287.29 137.49 2285.01 130.55 C 2282.65 121.36 2278.26 111.18 2268.84 107.42 C 2262.83 104.37 2256.01 103.95 2249.43 104.78 Z"></path><path fill="#020303" opacity="1.00" d=" M 2686.36 85.58 C 2692.90 85.25 2699.48 85.40 2706.05 85.40 C 2712.65 84.97 2718.73 88.43 2723.94 92.13 C 2729.83 97.13 2732.99 104.82 2734.46 112.23 C 2734.74 139.15 2734.44 166.09 2734.60 193.02 C 2734.44 197.12 2735.45 201.98 2732.01 205.07 C 2727.67 208.89 2720.86 209.53 2715.77 206.90 C 2712.15 205.63 2711.08 201.41 2710.59 198.05 C 2710.55 175.70 2710.62 153.35 2710.57 131.00 C 2710.86 124.80 2709.40 118.56 2706.57 113.05 C 2703.10 107.06 2695.75 103.96 2689.01 104.48 C 2679.06 104.65 2669.13 107.83 2660.54 112.82 C 2656.71 115.11 2654.86 119.63 2654.62 123.92 C 2654.62 148.30 2654.65 172.69 2654.61 197.08 C 2654.75 199.95 2654.33 203.03 2652.07 205.05 C 2648.81 208.97 2643.32 207.24 2638.92 207.59 C 2634.31 208.28 2630.16 203.47 2630.46 199.07 C 2630.44 165.37 2630.45 131.68 2630.46 97.98 C 2630.05 95.10 2631.83 92.67 2633.62 90.61 C 2636.89 86.80 2642.47 88.82 2646.85 88.59 C 2649.59 91.66 2652.53 94.55 2655.45 97.48 C 2661.59 95.45 2666.97 91.70 2673.10 89.59 C 2677.45 88.09 2681.81 86.44 2686.36 85.58 Z"></path><path fill="#020303" opacity="1.00" d=" M 2797.01 86.50 C 2801.82 84.86 2806.99 85.68 2812.00 85.45 C 2819.04 85.75 2826.48 84.38 2833.06 87.62 C 2846.89 92.74 2856.82 105.80 2859.41 120.11 C 2859.50 129.03 2859.71 137.97 2859.32 146.87 C 2857.55 149.86 2855.01 153.77 2851.10 153.50 C 2829.47 153.51 2807.84 153.39 2786.21 153.53 C 2784.08 153.27 2782.96 155.38 2781.51 156.50 C 2781.51 160.11 2780.96 163.91 2782.72 167.25 C 2784.92 174.01 2787.95 180.85 2793.88 185.17 C 2798.99 190.00 2806.26 190.35 2812.76 191.87 C 2818.40 193.32 2824.20 192.11 2829.87 191.39 C 2834.88 190.42 2840.11 190.54 2844.91 188.51 C 2847.79 187.16 2850.98 187.48 2854.10 187.47 C 2855.26 189.25 2857.67 190.50 2857.52 192.90 C 2857.50 195.60 2858.11 198.75 2856.00 200.86 C 2851.82 206.15 2844.85 207.60 2838.66 209.11 C 2834.45 209.88 2830.37 211.53 2826.07 211.48 C 2818.75 211.54 2811.43 211.66 2804.14 211.37 C 2793.02 208.86 2781.16 205.57 2773.46 196.55 C 2764.87 189.05 2761.05 177.92 2758.50 167.15 C 2756.82 161.24 2757.78 155.05 2757.53 149.00 C 2757.80 142.41 2756.72 135.64 2758.74 129.24 C 2761.27 120.65 2763.35 111.49 2769.50 104.61 C 2773.77 100.10 2777.94 95.30 2783.36 92.10 C 2787.56 89.50 2792.28 87.90 2797.01 86.50 M 2786.90 117.09 C 2784.09 122.21 2781.38 127.94 2782.72 133.93 C 2784.96 137.53 2789.39 136.43 2792.99 136.59 C 2806.68 136.53 2820.38 136.74 2834.08 136.47 C 2838.71 131.97 2838.10 124.85 2836.09 119.25 C 2833.10 109.66 2823.08 102.62 2813.02 103.47 C 2802.67 102.59 2792.15 108.15 2786.90 117.09 Z"></path><path fill="#020303" opacity="1.00" d=" M 1833.32 88.35 C 1835.78 88.36 1838.27 88.27 1840.74 88.65 C 1843.76 90.84 1846.78 94.15 1846.50 98.15 C 1846.55 131.10 1846.52 164.05 1846.51 197.00 C 1847.12 203.25 1841.00 208.51 1835.04 208.46 C 1830.85 208.58 1826.07 207.11 1823.67 203.47 C 1820.26 197.21 1821.55 189.77 1822.39 183.04 C 1822.44 160.02 1822.37 137.01 1822.42 114.00 C 1822.38 111.33 1822.59 108.63 1821.99 106.01 C 1820.89 100.69 1821.64 94.58 1825.26 90.36 C 1827.20 87.85 1830.53 88.48 1833.32 88.35 Z"></path><path fill="#020303" opacity="1.00" d=" M 2452.55 98.06 C 2453.58 91.84 2460.09 86.12 2466.62 87.71 C 2471.57 89.70 2474.36 94.62 2476.00 99.45 C 2478.44 99.51 2481.26 100.05 2483.14 98.01 C 2492.20 90.67 2504.05 85.61 2515.82 87.85 C 2518.50 90.19 2521.92 92.98 2521.49 96.95 C 2521.28 99.39 2522.06 102.20 2520.48 104.30 C 2519.08 106.40 2517.24 108.31 2514.97 109.42 C 2508.20 109.85 2501.13 108.37 2494.68 111.06 C 2488.03 113.17 2479.73 115.79 2477.57 123.25 C 2477.34 147.86 2477.54 172.48 2477.48 197.09 C 2478.07 201.57 2474.55 205.17 2471.10 207.41 C 2467.06 207.62 2463.01 207.61 2458.99 207.42 C 2455.25 205.48 2452.09 201.49 2452.49 197.10 C 2452.56 164.09 2452.43 131.07 2452.55 98.06 Z"></path><path fill="#020303" opacity="1.00" d=" M 2888.17 88.75 C 2891.96 88.14 2895.92 88.23 2899.74 88.75 C 2903.34 91.39 2904.91 95.70 2906.88 99.53 C 2911.25 100.25 2914.32 96.62 2917.83 94.66 C 2926.05 89.30 2935.94 86.03 2945.81 87.71 C 2948.96 90.18 2952.16 93.65 2951.54 97.99 C 2952.17 102.50 2950.31 107.64 2945.85 109.40 C 2939.01 109.84 2931.97 108.57 2925.39 110.99 C 2917.56 113.09 2908.02 117.07 2906.61 126.10 C 2906.44 150.76 2906.65 175.43 2906.50 200.09 C 2906.77 202.62 2904.70 204.47 2903.04 206.03 C 2896.40 211.22 2883.84 208.19 2882.57 199.15 C 2882.52 165.74 2882.59 132.32 2882.54 98.90 C 2882.21 94.73 2884.96 91.11 2888.17 88.75 Z"></path><path fill="#020303" opacity="1.00" d=" M 78.52 161.60 C 88.67 161.45 98.84 161.36 109.00 161.63 C 119.56 163.79 130.40 166.21 139.51 172.28 C 154.58 181.11 164.37 198.47 163.49 215.98 C 163.52 242.67 163.48 269.36 163.51 296.05 C 163.17 305.14 166.56 314.01 171.66 321.43 C 173.83 324.96 176.87 328.54 176.53 332.95 C 176.52 334.89 176.62 336.86 176.26 338.78 C 174.18 342.38 170.93 345.09 167.96 347.93 C 162.63 352.28 157.74 357.13 152.31 361.36 C 148.80 364.65 143.56 363.66 139.22 363.20 C 132.04 358.81 127.85 351.20 121.85 345.50 C 119.21 345.64 116.00 344.56 114.08 346.97 C 105.06 355.48 94.37 362.71 82.11 365.40 C 69.73 365.65 57.31 365.88 44.94 365.29 C 34.07 361.88 23.63 355.61 17.19 346.01 C 12.13 338.90 8.97 330.45 7.60 321.86 C 7.98 311.60 6.11 300.96 9.65 291.08 C 11.59 284.67 14.23 278.39 18.31 273.03 C 27.05 260.51 40.69 252.06 55.19 247.78 C 64.13 244.98 73.42 243.73 82.63 242.15 C 87.78 240.82 93.20 242.16 98.36 240.89 C 101.32 240.27 104.37 240.77 107.36 240.32 C 110.08 238.40 112.77 235.50 112.47 231.92 C 112.30 226.67 113.08 221.26 111.56 216.15 C 110.46 211.42 107.10 207.63 103.48 204.59 C 100.04 201.73 95.52 200.97 91.32 199.87 C 86.86 198.75 82.42 200.39 78.16 201.57 C 71.49 203.46 66.24 208.74 62.85 214.61 C 60.55 219.20 57.53 223.79 53.04 226.44 C 47.63 226.52 42.14 226.89 36.83 225.63 C 30.12 225.21 22.65 226.21 16.76 222.33 C 12.82 219.81 12.89 214.62 14.28 210.68 C 17.14 201.93 20.65 192.94 27.40 186.41 C 32.43 181.34 37.32 175.95 43.66 172.48 C 54.14 165.91 66.47 163.45 78.52 161.60 M 101.56 269.20 C 92.37 270.26 82.78 271.70 74.97 277.03 C 67.89 281.41 63.11 288.87 61.54 296.99 C 59.17 304.57 61.25 312.71 64.74 319.59 C 67.03 324.34 71.76 327.23 76.51 329.09 C 84.64 331.13 93.26 327.90 99.03 322.03 C 106.95 314.39 110.83 303.52 112.38 292.84 C 112.55 287.88 112.42 282.91 112.46 277.96 C 112.74 274.22 110.67 270.49 107.46 268.60 C 105.47 268.35 103.50 268.78 101.56 269.20 Z"></path><path fill="#020303" opacity="1.00" d=" M 546.89 161.60 C 556.21 161.39 565.54 161.51 574.86 161.51 C 579.83 161.31 584.56 163.10 589.35 164.17 C 598.04 166.28 606.57 169.74 613.46 175.58 C 620.48 182.00 627.76 189.10 630.18 198.64 C 631.53 204.69 633.81 210.67 633.52 216.95 C 633.59 245.32 633.51 273.69 633.56 302.07 C 633.69 310.09 638.22 317.07 642.69 323.41 C 645.67 327.51 647.48 332.74 646.13 337.78 C 643.65 344.35 636.98 347.53 632.46 352.47 C 627.97 356.08 624.08 360.53 619.01 363.37 C 615.70 363.63 612.26 363.91 609.00 363.21 C 601.98 358.57 597.46 351.22 591.50 345.43 C 589.53 345.46 587.55 345.28 585.61 345.58 C 581.25 348.13 578.26 352.38 574.04 355.11 C 567.05 359.85 559.15 363.27 550.98 365.37 C 540.33 365.80 529.66 365.58 519.01 365.55 C 512.87 365.91 507.33 362.64 502.04 359.95 C 490.15 352.83 480.87 340.80 478.52 326.98 C 476.87 320.11 477.62 312.99 477.48 306.00 C 476.87 290.62 483.80 275.40 495.00 264.99 C 506.37 253.62 521.87 247.52 537.43 244.55 C 545.62 243.42 553.72 241.24 562.04 241.48 C 566.03 241.72 569.86 240.24 573.86 240.52 C 578.35 240.87 582.66 236.63 582.49 232.15 C 582.74 223.77 582.26 214.31 576.08 207.93 C 571.72 202.56 564.76 199.86 558.01 199.52 C 549.61 200.37 540.50 203.11 535.30 210.26 C 531.10 215.55 529.19 222.77 523.14 226.45 C 517.22 226.55 511.22 226.85 505.40 225.58 C 500.89 225.67 496.44 225.16 492.00 224.51 C 488.36 224.71 485.20 222.03 483.58 218.99 C 483.45 216.08 483.28 213.13 483.78 210.25 C 486.11 202.81 489.14 195.35 494.44 189.50 C 498.78 184.79 503.27 180.20 508.12 176.03 C 519.25 167.42 533.22 163.71 546.89 161.60 M 562.02 270.44 C 556.09 271.83 550.07 273.45 544.87 276.72 C 537.68 281.73 531.95 289.31 530.55 298.09 C 530.43 302.32 530.34 306.56 530.63 310.78 C 532.32 317.89 536.67 324.71 543.34 328.06 C 547.13 330.22 551.65 329.53 555.81 329.39 C 560.61 327.83 565.13 325.29 568.96 321.99 C 576.69 314.37 580.19 303.62 581.64 293.09 C 582.99 287.51 582.43 281.72 582.49 276.03 C 582.77 273.35 580.41 271.56 579.11 269.51 C 573.41 269.52 567.58 268.92 562.02 270.44 Z"></path><path fill="#020303" opacity="1.00" d=" M 1101.65 163.67 C 1108.07 163.31 1114.50 163.51 1120.93 163.50 C 1131.36 163.12 1140.87 168.88 1148.40 175.62 C 1157.25 184.40 1163.59 196.35 1163.63 209.00 C 1165.29 215.08 1163.84 221.46 1165.40 227.56 C 1165.76 268.38 1165.43 309.22 1165.57 350.05 C 1165.41 352.81 1166.07 355.95 1164.15 358.26 C 1162.44 361.30 1159.27 363.04 1156.16 364.32 C 1146.73 364.62 1137.29 364.33 1127.87 364.46 C 1120.94 365.20 1115.03 358.61 1114.56 352.10 C 1114.51 312.86 1114.61 273.61 1114.51 234.36 C 1114.60 224.29 1109.31 214.03 1100.03 209.60 C 1096.00 209.29 1091.93 209.31 1087.90 209.60 C 1083.86 210.89 1080.79 213.96 1077.92 216.93 C 1070.74 223.94 1069.02 234.42 1067.59 243.91 C 1067.48 277.60 1067.55 311.30 1067.56 345.00 C 1067.49 348.45 1067.73 351.93 1067.31 355.36 C 1065.29 359.29 1061.95 363.02 1057.67 364.36 C 1047.32 364.42 1036.92 364.65 1026.58 364.24 C 1021.53 361.69 1016.99 356.86 1016.59 351.00 C 1016.61 293.67 1016.58 236.34 1016.60 179.01 C 1017.14 173.78 1020.18 168.21 1025.47 166.60 C 1034.97 166.25 1044.49 166.54 1054.00 166.45 C 1058.67 165.95 1062.30 169.89 1064.27 173.70 C 1064.65 178.02 1064.52 182.38 1065.74 186.60 C 1066.99 186.58 1068.25 186.59 1069.52 186.62 C 1073.09 183.44 1075.56 179.29 1078.96 175.96 C 1085.01 169.64 1093.21 165.66 1101.65 163.67 Z"></path><path fill="#020303" opacity="1.00" d=" M 287.54 163.68 C 295.22 163.28 302.94 163.44 310.64 163.57 C 319.32 164.78 327.06 169.75 333.09 175.94 C 337.59 180.35 340.40 186.22 345.38 190.17 C 350.64 188.00 352.84 182.41 356.57 178.53 C 364.01 170.85 373.78 165.34 384.36 163.58 C 392.06 163.41 399.79 163.28 407.49 163.66 C 421.73 166.83 434.50 176.56 441.26 189.51 C 444.60 196.83 446.75 204.89 446.45 212.98 C 446.44 258.67 446.39 304.35 446.44 350.04 C 446.73 356.25 442.56 362.53 436.59 364.35 C 427.38 364.59 418.17 364.34 408.96 364.46 C 403.46 364.86 398.12 360.82 396.52 355.62 C 395.15 352.59 395.66 349.22 395.58 346.00 C 395.58 306.36 395.62 266.73 395.55 227.09 C 395.95 223.64 393.86 220.72 391.95 218.07 C 389.32 214.88 386.26 211.61 382.08 210.61 C 377.71 210.33 373.30 210.29 368.93 210.68 C 360.13 213.87 353.88 222.14 351.69 231.07 C 351.35 236.04 351.64 241.06 350.58 245.96 C 350.46 280.32 350.54 314.68 350.55 349.04 C 351.79 356.77 345.04 364.96 337.09 364.46 C 328.35 364.38 319.60 364.51 310.86 364.41 C 306.16 363.72 301.96 360.21 300.60 355.61 C 298.49 350.95 300.05 345.84 300.42 341.03 C 300.40 307.34 300.44 273.66 300.40 239.97 C 299.51 235.56 299.64 231.07 299.33 226.60 C 296.91 219.32 292.19 211.85 284.46 209.58 C 280.27 209.40 276.03 209.20 271.88 209.78 C 264.80 212.56 259.44 218.80 257.22 226.01 C 254.52 232.37 256.14 239.38 254.59 245.97 C 254.51 281.31 254.60 316.66 254.55 352.00 C 254.89 358.62 248.76 364.81 242.12 364.45 C 233.05 364.40 223.97 364.49 214.90 364.42 C 207.94 363.60 203.83 356.57 203.60 350.07 C 203.62 293.69 203.62 237.32 203.60 180.94 C 203.85 176.98 204.96 172.69 208.00 169.92 C 211.11 166.86 215.61 165.36 219.93 165.59 C 226.61 165.71 233.29 165.49 239.97 165.67 C 244.14 166.65 248.80 168.56 250.57 172.80 C 252.51 177.10 252.60 181.99 254.83 186.19 C 260.85 181.74 265.07 175.40 271.04 170.89 C 275.67 166.86 281.70 165.12 287.54 163.68 Z"></path><path fill="#020303" opacity="1.00" d=" M 896.30 163.62 C 907.95 163.68 919.88 162.34 931.27 165.42 C 942.80 169.00 953.92 174.84 962.08 183.92 C 976.66 197.09 984.51 216.04 988.59 234.90 C 989.95 239.70 989.10 244.76 990.38 249.57 C 990.66 261.02 990.64 272.48 990.39 283.93 C 989.27 288.58 989.73 293.43 988.40 298.04 C 984.46 313.60 978.22 329.12 967.08 340.97 C 961.94 345.91 957.31 351.47 951.37 355.50 C 944.03 360.76 935.54 364.43 926.73 366.33 C 915.21 366.69 903.68 366.55 892.16 366.41 C 878.14 364.21 865.53 356.29 855.96 346.01 C 846.90 337.30 840.79 326.06 836.23 314.46 C 833.03 306.56 831.53 298.12 829.63 289.85 C 829.29 274.57 829.48 259.27 829.51 243.99 C 829.30 239.34 830.92 234.91 831.86 230.42 C 835.60 213.52 843.10 196.87 855.87 184.87 C 859.63 181.22 863.18 177.27 867.64 174.45 C 876.32 168.92 885.98 164.68 896.30 163.62 M 904.36 201.54 C 902.24 201.47 900.51 202.86 898.77 203.86 C 891.80 208.44 887.58 216.04 884.98 223.77 C 883.61 229.43 883.72 235.30 882.63 241.01 C 882.35 245.34 882.88 249.74 881.68 253.97 C 881.42 259.29 881.27 264.66 881.77 269.96 C 883.33 275.70 881.73 281.75 883.31 287.49 C 883.64 294.87 883.96 302.44 886.83 309.36 C 889.44 315.98 893.09 322.77 899.39 326.53 C 903.78 328.82 909.00 330.41 913.92 328.92 C 922.91 326.91 929.07 318.82 932.53 310.75 C 936.09 302.99 936.11 294.33 937.40 286.05 C 937.45 273.02 937.61 259.99 937.31 246.97 C 935.96 242.12 937.10 237.00 935.71 232.16 C 934.81 228.34 933.96 224.51 933.07 220.69 C 930.68 212.12 924.47 203.98 915.63 201.59 C 911.87 201.35 908.11 201.43 904.36 201.54 Z"></path><path fill="#020303" opacity="1.00" d=" M 677.81 171.63 C 679.62 168.87 682.58 166.21 686.08 166.45 C 723.05 166.41 760.02 166.45 797.00 166.43 C 802.63 165.94 807.11 171.20 808.37 176.24 C 808.47 183.02 808.66 189.83 808.27 196.60 C 805.79 204.76 800.26 211.42 795.26 218.15 C 791.41 223.16 788.43 228.77 784.58 233.78 C 779.10 241.02 773.98 248.54 769.02 256.14 C 761.09 266.96 753.71 278.17 745.62 288.87 C 743.58 291.23 744.66 294.49 744.44 297.31 C 749.01 301.02 755.02 298.60 760.25 300.11 C 762.66 300.64 765.14 300.38 767.58 300.70 C 778.89 303.05 790.32 305.75 800.60 311.19 C 805.20 313.51 809.54 317.16 811.39 322.09 C 811.70 331.73 811.53 341.39 811.50 351.03 C 811.69 353.65 809.41 355.42 808.21 357.50 C 804.18 357.39 799.78 358.44 796.18 356.13 C 788.15 351.89 779.65 348.58 770.78 346.62 C 765.90 344.76 760.61 346.12 755.63 344.86 C 747.72 344.26 739.69 342.38 731.79 344.35 C 727.15 344.20 722.69 345.66 718.06 345.51 C 711.79 345.24 705.98 347.99 700.06 349.61 C 693.30 351.44 687.23 355.05 680.62 357.29 C 675.82 358.57 671.58 354.45 669.71 350.40 C 669.22 342.28 669.64 334.11 669.52 325.97 C 669.21 319.19 670.73 312.22 674.41 306.46 C 678.13 300.54 682.45 295.03 686.44 289.30 C 691.49 282.31 696.13 275.04 701.23 268.09 C 705.91 261.76 709.85 254.94 714.61 248.67 C 722.81 237.47 730.43 225.86 738.54 214.60 C 739.79 213.20 739.40 211.25 739.60 209.54 C 738.08 208.41 736.97 206.17 734.80 206.49 C 718.55 206.39 702.29 206.54 686.03 206.42 C 681.46 205.67 677.90 201.68 676.62 197.34 C 675.00 193.41 675.74 189.11 675.58 184.99 C 675.41 180.46 675.78 175.75 677.81 171.63 Z"></path><path fill="#020303" opacity="1.00" d=" M 1979.65 295.87 C 1981.55 292.55 1984.90 289.12 1989.04 289.48 C 1994.18 288.80 1998.41 293.34 1999.39 298.06 C 1999.78 304.24 1999.27 310.45 1999.60 316.64 C 2000.27 320.50 2004.10 323.74 2008.09 323.44 C 2015.06 323.55 2022.06 323.18 2029.04 323.60 C 2033.31 325.80 2035.91 331.13 2033.95 335.69 C 2032.67 338.19 2030.58 340.25 2028.02 341.40 C 2020.14 341.82 2012.23 341.20 2004.35 341.67 C 2001.29 343.01 1999.29 346.60 1999.51 349.91 C 1999.49 369.28 1999.51 388.66 1999.50 408.04 C 1999.35 412.47 2000.84 417.00 2003.50 420.54 C 2008.01 425.17 2015.07 424.74 2021.01 424.26 C 2024.74 423.71 2029.72 422.06 2032.64 425.33 C 2037.69 429.16 2036.07 437.86 2030.81 440.80 C 2028.02 442.31 2024.99 443.70 2021.76 443.54 C 2013.37 443.59 2004.97 443.84 1996.60 443.37 C 1988.96 441.35 1981.97 436.13 1978.75 428.79 C 1976.77 424.39 1975.29 419.73 1974.61 414.97 C 1974.44 392.67 1974.65 370.37 1974.52 348.07 C 1974.97 345.16 1972.40 343.26 1970.39 341.67 C 1967.58 341.36 1964.75 341.59 1961.95 341.50 C 1958.73 341.82 1956.77 338.76 1954.49 337.05 C 1954.39 334.38 1954.41 331.71 1954.57 329.05 C 1957.43 326.48 1960.92 324.06 1964.98 324.51 C 1968.79 324.65 1973.94 323.69 1975.29 319.57 C 1978.68 312.07 1976.67 303.47 1979.65 295.87 Z"></path><path fill="#020303" opacity="1.00" d=" M 2092.41 319.68 C 2097.94 319.34 2103.49 319.62 2109.05 319.52 C 2113.61 319.22 2117.88 321.12 2122.24 322.20 C 2129.85 324.12 2136.39 328.76 2142.32 333.74 C 2145.85 337.19 2148.51 341.42 2151.20 345.55 C 2154.69 351.02 2156.15 357.42 2157.81 363.62 C 2160.74 372.11 2159.19 381.23 2159.54 390.04 C 2159.92 396.16 2157.90 402.02 2156.38 407.86 C 2154.33 415.44 2150.45 422.42 2145.45 428.43 C 2134.86 440.86 2118.10 447.20 2101.97 446.45 C 2085.23 446.88 2067.94 439.94 2057.73 426.33 C 2050.72 417.28 2047.08 406.07 2045.58 394.85 C 2045.80 383.58 2044.25 372.04 2047.49 361.06 C 2051.05 345.72 2061.55 332.10 2075.55 324.88 C 2080.89 322.38 2086.71 321.12 2092.41 319.68 M 2093.39 340.53 C 2084.93 342.40 2078.28 349.16 2074.93 356.94 C 2069.85 367.87 2070.30 380.18 2070.56 391.94 C 2071.57 401.09 2074.07 410.59 2080.46 417.53 C 2090.47 428.28 2108.27 429.32 2120.35 421.51 C 2129.36 414.85 2132.80 403.47 2134.44 392.88 C 2134.28 383.59 2135.61 374.04 2132.79 365.03 C 2131.26 358.77 2128.95 352.37 2124.20 347.80 C 2116.56 339.44 2103.88 338.01 2093.39 340.53 Z"></path><path fill="#020303" opacity="1.00" d=" M 1504.83 321.33 C 1515.98 318.70 1527.50 319.61 1538.86 319.63 C 1547.15 321.36 1555.74 323.97 1561.96 330.04 C 1567.52 335.77 1570.12 343.68 1571.42 351.39 C 1571.62 378.25 1571.47 405.12 1571.50 431.99 C 1572.06 438.38 1565.78 444.43 1559.40 443.40 C 1554.35 442.43 1551.24 437.92 1547.01 435.45 C 1544.66 435.09 1542.56 436.15 1540.61 437.26 C 1531.06 442.66 1520.23 446.40 1509.19 446.45 C 1500.10 445.33 1490.40 443.01 1483.78 436.22 C 1472.00 425.37 1470.69 406.49 1477.74 392.71 C 1483.02 384.12 1491.41 377.23 1501.28 374.71 C 1511.00 372.34 1521.24 371.53 1531.13 373.41 C 1535.32 373.79 1539.48 375.05 1543.74 374.37 C 1545.14 373.49 1546.29 372.26 1547.54 371.15 C 1547.26 363.30 1549.06 354.70 1544.45 347.72 C 1540.75 341.46 1533.20 339.74 1526.57 338.61 C 1519.93 337.80 1513.52 340.07 1506.96 340.47 C 1500.70 340.30 1495.00 343.37 1488.96 344.44 C 1485.59 345.00 1483.54 341.53 1481.72 339.28 C 1480.20 333.54 1484.09 327.84 1489.27 325.60 C 1494.22 323.46 1499.60 322.59 1504.83 321.33 M 1513.18 390.58 C 1506.67 392.06 1501.13 397.26 1499.05 403.59 C 1497.22 410.33 1498.82 418.09 1504.26 422.80 C 1509.61 428.11 1517.89 428.51 1524.77 426.46 C 1531.67 424.58 1538.91 422.29 1544.17 417.19 C 1545.69 415.45 1547.86 413.66 1547.55 411.10 C 1547.48 405.80 1548.02 400.39 1547.17 395.16 C 1544.83 392.06 1540.91 390.25 1537.05 390.46 C 1529.09 390.42 1521.12 390.19 1513.18 390.58 Z"></path><path fill="#020303" opacity="1.00" d=" M 1874.00 327.84 C 1880.26 323.54 1887.54 320.72 1895.04 319.58 C 1901.91 319.63 1908.83 319.21 1915.69 319.81 C 1922.76 321.82 1931.34 321.74 1936.61 327.55 C 1939.27 329.99 1938.49 333.80 1938.50 337.02 C 1938.51 338.80 1937.00 340.05 1936.21 341.50 C 1927.94 342.63 1920.08 339.56 1912.00 338.59 C 1905.91 338.62 1899.54 337.68 1893.82 340.28 C 1889.03 342.09 1883.97 346.43 1884.46 352.01 C 1883.89 358.07 1888.25 363.55 1893.39 366.27 C 1904.28 371.94 1916.34 374.88 1927.30 380.42 C 1932.76 383.12 1937.29 387.42 1941.04 392.17 C 1945.81 399.34 1948.05 408.53 1945.55 416.93 C 1943.56 424.93 1939.10 432.38 1932.33 437.20 C 1925.25 442.12 1916.85 446.15 1908.04 445.59 C 1899.21 445.53 1890.35 445.92 1881.55 445.25 C 1873.81 443.12 1864.75 441.81 1859.79 434.75 C 1858.96 431.60 1859.40 428.29 1859.60 425.09 C 1860.42 424.29 1861.22 423.47 1862.01 422.60 C 1865.64 422.32 1869.42 422.11 1872.91 423.46 C 1883.57 426.26 1894.64 428.46 1905.70 427.23 C 1911.59 425.69 1918.44 423.51 1920.94 417.33 C 1924.37 411.88 1921.39 404.91 1917.33 400.72 C 1910.86 395.45 1902.48 393.63 1894.92 390.52 C 1885.74 386.82 1875.71 383.64 1868.92 376.04 C 1865.47 372.62 1863.19 368.20 1861.71 363.62 C 1861.10 357.52 1861.30 351.34 1861.59 345.22 C 1863.34 338.17 1867.90 331.81 1874.00 327.84 Z"></path><path fill="#020303" opacity="1.00" d=" M 2294.21 322.94 C 2298.44 321.72 2302.67 320.36 2307.03 319.61 C 2313.33 319.48 2319.65 319.46 2325.97 319.62 C 2334.48 321.31 2342.81 324.81 2349.50 330.44 C 2356.11 336.84 2359.89 345.63 2362.05 354.46 C 2364.41 361.43 2363.19 368.88 2363.42 376.10 C 2362.78 381.03 2360.51 387.66 2354.88 388.49 C 2332.58 388.66 2310.27 388.46 2287.97 388.57 C 2286.85 389.96 2285.62 391.25 2284.65 392.73 C 2283.42 404.37 2290.28 415.75 2299.82 422.04 C 2304.48 424.45 2309.73 425.73 2314.91 426.45 C 2323.12 426.24 2331.52 427.38 2339.53 425.07 C 2345.31 424.00 2351.02 421.26 2357.01 422.71 C 2360.81 425.27 2359.37 430.21 2359.46 434.07 C 2355.71 440.76 2347.52 442.32 2340.71 444.17 C 2334.98 446.05 2328.92 445.50 2323.00 445.63 C 2316.37 445.56 2309.73 445.78 2303.13 445.37 C 2293.61 442.93 2283.78 439.47 2276.96 432.04 C 2267.32 423.27 2261.79 410.37 2261.33 397.43 C 2258.85 388.34 2258.61 378.52 2261.18 369.41 C 2261.82 349.30 2275.18 329.92 2294.21 322.94 M 2293.47 346.47 C 2289.04 351.20 2286.87 357.51 2284.93 363.57 C 2283.26 367.95 2287.49 372.77 2291.99 372.43 C 2305.66 372.44 2319.33 372.45 2333.00 372.44 C 2336.02 372.66 2338.27 370.29 2340.43 368.54 C 2340.36 364.10 2341.22 359.43 2339.26 355.28 C 2337.19 350.23 2334.85 344.57 2329.76 341.88 C 2325.30 339.22 2320.06 338.24 2314.99 337.58 C 2307.30 338.66 2298.93 340.47 2293.47 346.47 Z"></path><path fill="#020303" opacity="1.00" d=" M 1649.18 320.50 C 1657.61 320.33 1666.08 320.06 1674.50 320.67 C 1683.45 323.72 1692.37 328.45 1697.82 336.44 C 1702.87 343.22 1706.39 351.04 1708.53 359.20 C 1711.02 369.22 1710.67 379.60 1710.52 389.86 C 1709.23 407.24 1702.49 425.29 1688.35 436.26 C 1680.40 441.81 1670.87 446.06 1661.00 445.46 C 1652.27 445.71 1643.38 444.17 1635.54 440.22 C 1632.74 438.89 1630.02 436.88 1626.76 437.39 C 1624.83 437.10 1623.60 439.47 1623.53 441.09 C 1623.38 454.39 1623.49 467.70 1623.45 481.00 C 1623.44 485.50 1620.53 490.08 1616.08 491.36 C 1614.01 491.54 1611.94 491.50 1609.90 491.48 C 1604.43 491.74 1598.69 486.82 1599.44 481.10 C 1599.47 431.72 1599.46 382.34 1599.45 332.96 C 1598.96 328.23 1602.96 322.81 1608.03 323.41 C 1611.15 323.57 1614.94 322.61 1617.29 325.27 C 1620.25 327.21 1623.13 332.21 1627.18 329.84 C 1634.13 325.96 1641.23 321.83 1649.18 320.50 M 1646.48 339.95 C 1642.12 340.84 1637.77 341.96 1633.78 343.97 C 1629.03 346.04 1623.98 349.61 1623.51 355.20 C 1623.39 373.10 1623.42 391.00 1623.49 408.90 C 1623.30 412.43 1626.00 415.26 1628.52 417.40 C 1640.66 425.58 1657.93 429.16 1670.93 420.87 C 1676.07 416.97 1680.44 411.77 1682.17 405.45 C 1683.70 399.74 1685.87 394.04 1685.55 388.04 C 1685.29 380.52 1686.39 372.80 1684.16 365.49 C 1682.26 357.01 1678.37 348.22 1670.75 343.45 C 1663.48 339.02 1654.65 338.93 1646.48 339.95 Z"></path><path fill="#020303" opacity="1.00" d=" M 1783.17 320.49 C 1791.66 320.29 1800.18 320.12 1808.66 320.61 C 1826.49 325.62 1839.40 342.20 1842.70 360.05 C 1845.29 370.08 1844.60 380.49 1844.51 390.74 C 1843.80 398.34 1842.58 405.97 1839.57 413.05 C 1835.94 422.80 1829.26 431.16 1821.10 437.51 C 1816.64 440.54 1811.61 442.62 1806.51 444.28 C 1801.03 444.90 1795.48 444.53 1789.99 444.64 C 1786.03 444.47 1781.89 445.08 1778.14 443.54 C 1772.13 441.55 1766.62 438.38 1760.64 436.32 C 1759.50 438.46 1757.63 440.45 1757.60 443.00 C 1757.51 456.00 1757.64 469.00 1757.53 481.99 C 1757.74 485.42 1755.25 488.19 1752.81 490.26 C 1748.00 490.85 1743.01 490.95 1738.24 490.20 C 1735.49 488.00 1733.04 484.81 1733.46 481.11 C 1733.44 431.73 1733.43 382.35 1733.46 332.98 C 1733.09 329.05 1735.89 325.49 1739.16 323.64 C 1742.08 323.26 1745.05 323.34 1748.01 323.52 C 1752.78 324.39 1755.00 332.06 1760.51 330.20 C 1767.88 326.62 1774.98 321.93 1783.17 320.49 M 1779.57 340.21 C 1773.13 341.80 1766.25 343.62 1761.38 348.38 C 1757.83 351.94 1757.17 357.22 1757.55 362.01 C 1757.62 377.33 1757.49 392.65 1757.59 407.97 C 1758.24 411.88 1760.13 416.01 1763.71 418.08 C 1772.84 423.81 1783.92 426.67 1794.66 425.19 C 1801.36 423.49 1808.23 420.23 1812.01 414.16 C 1817.46 406.50 1818.59 396.92 1820.23 387.91 C 1821.09 380.05 1819.85 372.17 1818.06 364.53 C 1816.05 356.61 1812.28 348.55 1805.25 343.91 C 1797.76 338.87 1788.15 338.74 1779.57 340.21 Z"></path><path fill="#020303" opacity="1.00" d=" M 2218.41 328.70 C 2224.39 325.00 2231.20 322.78 2238.10 321.58 C 2242.98 320.91 2248.88 323.03 2250.60 328.04 C 2252.51 332.89 2252.08 339.79 2246.99 342.55 C 2242.44 345.35 2236.98 344.13 2231.97 344.42 C 2227.17 344.17 2222.74 346.26 2218.38 347.93 C 2212.91 350.14 2207.48 354.51 2206.59 360.66 C 2206.41 385.14 2206.66 409.62 2206.48 434.10 C 2205.97 437.21 2204.35 440.69 2201.24 441.95 C 2196.35 444.62 2189.86 443.86 2185.57 440.40 C 2183.89 438.30 2182.38 435.75 2182.52 432.98 C 2182.59 399.97 2182.53 366.96 2182.52 333.95 C 2182.38 330.93 2183.61 327.89 2185.51 325.58 C 2188.96 323.01 2193.81 321.42 2197.91 323.49 C 2202.73 324.78 2203.97 330.13 2206.65 333.70 C 2211.37 334.50 2214.68 330.87 2218.41 328.70 Z"></path><path fill="#020303" opacity="1.00" d=" M 725.92 373.59 C 735.96 373.36 746.03 373.52 756.08 373.52 C 763.59 374.60 771.44 375.05 778.34 378.62 C 782.63 381.47 785.00 386.84 784.52 391.94 C 784.93 395.56 783.37 398.96 783.50 402.56 C 783.45 404.67 783.60 406.80 783.30 408.91 C 779.69 421.68 777.08 434.90 770.77 446.71 C 764.96 459.16 757.50 471.02 747.50 480.53 C 745.16 482.74 742.43 485.07 738.97 484.61 C 737.46 482.79 735.56 480.77 736.72 478.23 C 744.16 460.29 750.51 441.89 755.38 423.09 C 755.61 417.63 755.65 412.15 755.40 406.70 C 752.80 400.80 746.52 397.36 740.37 396.56 C 736.17 396.86 732.20 395.17 728.01 395.51 C 721.02 395.81 713.91 394.79 707.05 396.42 C 702.71 396.08 698.60 397.72 694.29 397.50 C 690.37 397.30 686.61 398.67 682.70 398.71 C 679.22 399.69 675.10 400.30 672.34 397.41 C 671.46 392.60 676.00 389.72 679.43 387.36 C 689.76 381.58 701.17 378.06 712.68 375.51 C 716.97 373.99 721.60 374.97 725.92 373.59 Z"></path><path fill="#020303" opacity="1.00" d=" M 173.91 386.57 C 176.90 386.51 180.30 385.74 182.87 387.72 C 191.18 392.98 199.86 397.59 208.72 401.85 C 245.70 420.89 284.91 435.38 325.01 446.26 C 344.11 451.73 363.74 455.04 383.10 459.38 C 387.26 459.29 391.36 459.68 395.25 461.24 C 403.06 461.52 410.66 463.61 418.49 463.54 C 424.50 464.42 430.47 465.78 436.60 465.55 C 442.26 467.21 448.26 465.74 453.93 467.39 C 472.97 467.56 492.02 467.47 511.06 467.44 C 513.23 467.55 515.23 466.53 517.39 466.51 C 521.12 466.38 524.93 466.81 528.56 465.64 C 532.80 465.42 537.06 465.55 541.21 464.39 C 546.21 462.76 551.56 464.20 556.56 462.64 C 562.74 462.71 568.71 461.12 574.66 459.63 C 583.25 459.34 591.72 457.38 600.00 455.11 C 602.76 454.09 605.81 454.87 608.59 453.94 C 617.31 451.40 626.29 449.96 634.98 447.31 C 662.45 440.17 689.40 430.99 715.45 419.73 C 718.61 419.17 721.87 419.45 725.07 419.52 C 726.42 420.36 727.44 421.63 728.60 422.72 C 728.51 425.50 728.51 428.28 728.54 431.06 C 723.44 436.35 717.12 440.18 711.08 444.26 C 674.96 467.63 634.63 483.89 593.13 494.83 C 582.75 498.23 571.82 499.31 561.35 502.37 C 558.41 502.61 555.40 502.36 552.55 503.30 C 548.68 504.43 544.59 504.36 540.78 505.68 C 536.41 507.38 531.62 505.80 527.17 507.01 C 523.25 508.16 519.08 506.91 515.17 508.01 C 511.58 509.09 507.75 507.95 504.18 509.04 C 502.17 509.62 500.07 509.53 498.02 509.55 C 481.53 509.44 465.03 509.73 448.55 509.39 C 444.45 507.95 440.04 509.11 435.93 507.87 C 432.57 507.10 429.06 507.94 425.70 507.22 C 420.97 505.78 415.91 507.27 411.19 505.69 C 404.19 505.49 397.70 502.01 390.63 502.43 C 385.66 501.38 380.76 499.91 375.73 499.10 C 312.16 485.04 251.88 456.59 200.36 416.82 C 191.32 409.82 182.14 402.85 174.31 394.48 C 173.14 392.13 171.39 388.65 173.91 386.57 Z"></path></g></svg>