<svg xmlns="http://www.w3.org/2000/svg" xmlns:xlink="http://www.w3.org/1999/xlink" id="Capa_1" x="0px" y="0px" viewBox="0 0 323.6 88.8" style="enable-background:new 0 0 323.6 88.8;" xml:space="preserve"><style type="text/css">	.st0{fill:#262F3E;}	.st1{fill:#F8981D;}</style><g>	<path class="st0" d="M111.6,43.6c1.3,0.7,3.2,1.4,5.7,2c2.5,0.6,5,0.9,7.6,0.9c2.5,0,4.9-0.3,7-0.9c2.1-0.6,4-1.6,5.5-2.8  c1.5-1.2,2.7-2.7,3.6-4.4c0.9-1.7,1.3-3.6,1.3-5.7c0-2.6-0.8-4.9-2.3-6.9c-1.5-2-4.1-3.6-7.7-4.8l-7-2.2c-2.6-0.9-4.5-1.8-5.4-2.7  c-1-0.9-1.5-2.1-1.5-3.5c0-2,0.8-3.5,2.3-4.4c1.6-0.9,3.7-1.4,6.6-1.4c3.5,0,6.7,0.6,9.5,1.9c0.9,0.4,1.5,0.6,1.9,0.6  c0.7,0,1.1-0.5,1.1-1.6V5.3c0-0.7-0.1-1.2-0.4-1.6c-0.3-0.4-0.8-0.8-1.5-1.2c-0.5-0.3-1.2-0.6-2.1-0.9c-0.9-0.3-1.8-0.5-2.8-0.8  c-1-0.2-2.1-0.4-3.2-0.6c-1.1-0.1-2.2-0.2-3.3-0.2c-2.2,0-4.3,0.3-6.2,0.9c-2,0.6-3.7,1.4-5.1,2.6c-1.5,1.1-2.7,2.5-3.5,4.1  c-0.9,1.6-1.3,3.4-1.3,5.5c0,2.6,0.8,5,2.5,7.2c1.6,2.2,4.3,3.9,7.9,5l7.2,2.2c2.4,0.8,4.1,1.7,5,2.6c0.9,0.9,1.3,2.1,1.3,3.5  c0,2-0.8,3.6-2.6,4.7c-1.7,1.1-4.1,1.6-7.2,1.6c-2,0-3.9-0.2-5.9-0.6c-2-0.4-3.8-1-5.4-1.7c-0.5-0.2-0.9-0.4-1.3-0.5  c-0.3-0.1-0.6-0.2-0.9-0.2c-0.7,0-1.1,0.5-1.1,1.6v2.5c0,0.5,0.1,0.9,0.3,1.4C110.3,42.6,110.8,43.1,111.6,43.6"></path>	<path class="st0" d="M28.1,19.6c-1.8-0.3-3.6-0.4-5.2-0.4c-5.1,0-9.1,1.3-12.1,3.8c-3,2.6-4.5,5.9-4.5,10.2c0,4,1.2,7.1,3.6,9.5  c2.4,2.4,5.7,3.5,9.9,3.5c5.8,0,10.7-2.3,14.5-6.8c0.5,1.1,1,2.1,1.5,2.9c0.5,0.8,1.1,1.6,1.8,2.3c0.5,0.5,0.9,0.7,1.5,0.7  c0.4,0,0.8-0.1,1.3-0.4l3.1-2.1c0.6-0.5,0.9-0.9,0.9-1.5c0-0.3-0.1-0.7-0.3-1.1c-0.7-1.3-1.2-2.5-1.6-3.5c-0.4-1.1-0.6-2.6-0.6-4.4  V16.2c0-5.4-1.4-9.5-4.1-12.1c-2.7-2.7-7-4-12.9-4c-2.7,0-5.3,0.3-7.7,0.9c-2.4,0.6-4.5,1.4-6.2,2.3c-0.7,0.3-1.2,0.7-1.4,1  C9.3,4.6,9.2,5.2,9.2,6v2.4c0,1,0.3,1.6,1,1.6c0.2,0,0.4,0,0.8-0.1c0.3-0.1,0.9-0.3,1.7-0.6c1.7-0.7,3.5-1.3,5.3-1.7  c1.8-0.4,3.6-0.6,5.3-0.6c3.8,0,6.5,0.8,8,2.3c1.6,1.5,2.3,4.2,2.3,7.9v3.6C31.8,20.2,29.9,19.8,28.1,19.6 M33.7,28.3  c0,1.7-0.2,3.1-0.5,4.3c-0.3,1.2-0.9,2.2-1.7,3.2c-1.3,1.5-2.9,2.6-4.7,3.2c-1.8,0.6-3.5,0.9-5.1,0.9c-2.2,0-4-0.6-5.2-1.8  c-1.2-1.2-1.8-2.9-1.8-5.2c0-2.5,0.8-4.4,2.4-5.7c1.6-1.3,4.1-2,7.3-2c1.5,0,3,0.1,4.6,0.3c1.6,0.2,3.1,0.5,4.5,0.8V28.3z"></path>	<path class="st0" d="M58.5,42.7c0.3,1,0.6,1.6,1,1.9c0.4,0.3,1,0.5,1.9,0.5h4.2c0.9,0,1.6-0.2,2-0.5c0.4-0.3,0.7-1,0.9-2l7.6-31.8  L84,42.6c0.2,1,0.5,1.6,1,2c0.4,0.3,1.1,0.5,2,0.5h4.2c0.9,0,1.5-0.2,1.9-0.5c0.4-0.3,0.7-1,1-1.9L106,4.5c0.2-0.5,0.3-0.9,0.4-1.2  c0.1-0.3,0.1-0.5,0.1-0.8c0-0.8-0.4-1.2-1.2-1.2h-4.6c-0.9,0-1.6,0.2-1.9,0.5c-0.4,0.3-0.7,1-1,1.9l-8.6,33.1L81.4,3.7  c-0.2-1-0.5-1.6-0.9-1.9c-0.4-0.3-1.1-0.5-2-0.5h-4c-0.9,0-1.6,0.2-2,0.5c-0.4,0.3-0.7,1-0.9,1.9l-7.7,32.7L55.5,3.7  c-0.3-1-0.6-1.6-1-1.9c-0.4-0.3-1-0.5-1.9-0.5h-4.8c-0.8,0-1.2,0.4-1.2,1.2c0,0.3,0.1,1,0.4,2L58.5,42.7z"></path>	<path class="st1" d="M131.9,66.6c-18.2,7.7-38.1,11.5-56.1,11.5c-26.7,0-52.6-7.3-73.5-19.5c-1.8-1.1-3.2,0.8-1.7,2.2  c19.4,17.5,45,28,73.5,28c20.3,0,43.9-6.4,60.2-18.4C137,68.5,134.7,65.5,131.9,66.6"></path>	<path class="st1" d="M121.6,59.9c-1.4,1-1.2,2.4,0.4,2.2c5.2-0.6,16.9-2,19,0.6c2.1,2.7-2.3,13.6-4.3,18.5c-0.6,1.5,0.7,2.1,2,1  c8.7-7.3,11-22.6,9.2-24.8C146.2,55.2,131,53.3,121.6,59.9"></path>	<path class="st0" d="M187.1,34.9c-0.4,0-0.6-0.2-0.6-0.6V7.6c0-0.4,0.2-0.6,0.6-0.6h0.7c0.4,0,0.6,0.2,0.7,0.6l0.2,1.6  c1.2-1,2.4-1.7,3.5-2.1c1.1-0.4,2.3-0.7,3.5-0.7c2.5,0,4.5,0.9,6,2.7c1.5,1.8,2.2,4.3,2.2,7.5c0,3.2-0.8,5.8-2.3,7.7  c-1.5,1.9-3.6,2.9-6.2,2.9c-2.4,0-4.6-0.9-6.6-2.7v9.7c0,0.4-0.2,0.6-0.6,0.6H187.1z M195.1,25.2c2.1,0,3.8-0.7,4.8-2.1  c1.1-1.4,1.6-3.5,1.6-6.3c0-5.6-2.1-8.3-6.3-8.3c-2.2,0-4.3,0.8-6.5,2.5v11.5c1.1,0.9,2.1,1.6,3.1,2C192.9,25,194,25.2,195.1,25.2"></path>	<path class="st0" d="M213.6,27.2c-1.8,0-3.2-0.5-4.3-1.5c-1.1-1-1.6-2.4-1.6-4.1c0-1.9,0.7-3.4,2-4.5c1.3-1.1,3.1-1.7,5.3-1.7  c1.8,0,3.6,0.3,5.6,0.9V13c0-1.6-0.4-2.7-1.1-3.4c-0.8-0.7-2-1-3.8-1c-1.8,0-3.7,0.3-5.7,1c-0.2,0.1-0.4,0.1-0.6,0.1  c-0.3,0-0.4-0.2-0.4-0.5V8.4c0-0.2,0-0.4,0.1-0.5c0.1-0.1,0.2-0.2,0.4-0.3c2.1-0.8,4.3-1.2,6.6-1.2s4,0.5,5.1,1.5  c1.1,1,1.7,2.4,1.7,4.4v13.9c0,0.4-0.2,0.6-0.6,0.6h-0.8c-0.4,0-0.6-0.2-0.6-0.6l-0.2-1.7C218.5,26.3,216.1,27.2,213.6,27.2   M213.9,25.2c1,0,2.1-0.2,3.2-0.6c1.1-0.4,2.3-1,3.5-1.7V18c-1.8-0.5-3.5-0.7-5.1-0.7c-3.7,0-5.5,1.4-5.5,4.2c0,1.2,0.3,2.1,1,2.8  C211.7,24.9,212.7,25.2,213.9,25.2"></path>	<path class="st0" d="M229.5,26.8c-0.4,0-0.6-0.2-0.6-0.6V7.6c0-0.4,0.2-0.6,0.6-0.6h0.7c0.4,0,0.6,0.2,0.7,0.6l0.2,2.3  c1-1.1,2-1.9,2.9-2.3c1-0.5,2-0.7,3.2-0.7c0.4,0,0.8,0,1,0c0.4,0,0.6,0.2,0.6,0.6v1c0,0.1,0,0.2-0.1,0.3c-0.1,0.1-0.2,0.1-0.3,0.1  c-0.2,0-0.4,0-0.6,0c-0.2,0-0.5,0-0.8,0c-1.2,0-2.3,0.2-3.2,0.7c-0.9,0.4-1.8,1.2-2.7,2.2v14.5c0,0.4-0.2,0.6-0.6,0.6H229.5z"></path>	<path class="st0" d="M249.3,27c-1.5,0-2.7-0.4-3.5-1.2c-0.8-0.8-1.2-2-1.2-3.6V9h-3.1c-0.4,0-0.6-0.2-0.6-0.6V8  c0-0.2,0-0.4,0.1-0.5c0.1-0.1,0.2-0.2,0.5-0.2l3.2-0.3l0.3-5.2c0-0.2,0.1-0.4,0.2-0.5c0.1-0.1,0.2-0.1,0.4-0.1h0.7  c0.4,0,0.6,0.2,0.6,0.6V7h5.7c0.4,0,0.6,0.2,0.6,0.6v0.8c0,0.4-0.2,0.6-0.6,0.6h-5.7v13.1c0,1.1,0.2,1.8,0.7,2.3  c0.5,0.5,1.2,0.7,2.3,0.7c0.8,0,1.4-0.1,2-0.2c0.3,0,0.5-0.1,0.7-0.1c0.2,0,0.3-0.1,0.4-0.1c0.3,0,0.4,0.2,0.4,0.5v0.6  c0,0.4-0.1,0.7-0.4,0.8C251.9,26.9,250.7,27,249.3,27"></path>	<path class="st0" d="M258.1,26.8c-0.4,0-0.6-0.2-0.6-0.6V7.6c0-0.4,0.2-0.6,0.6-0.6h0.8c0.4,0,0.6,0.2,0.7,0.6l0.2,1.7  c1.3-0.9,2.6-1.6,4-2.1c1.4-0.5,2.8-0.7,4.1-0.7c1.9,0,3.4,0.5,4.4,1.5c1,1,1.5,2.5,1.5,4.5v13.8c0,0.4-0.2,0.6-0.6,0.6h-1.1  c-0.4,0-0.6-0.2-0.6-0.6V13.4c0-1.7-0.3-2.9-1-3.7c-0.7-0.8-1.7-1.2-3.1-1.2c-2.6,0-5.2,0.8-7.7,2.5v15.2c0,0.4-0.2,0.6-0.6,0.6  H258.1z"></path>	<path class="st0" d="M288.2,27.4c-3.1,0-5.5-0.9-7-2.6c-1.6-1.8-2.4-4.4-2.4-7.9c0-3.3,0.8-5.9,2.4-7.7c1.6-1.8,3.8-2.7,6.7-2.7  c2.4,0,4.2,0.7,5.5,2c1.3,1.4,1.9,3.3,1.9,5.9c0,1-0.1,1.8-0.2,2.4c-0.1,0.4-0.3,0.6-0.7,0.6h-13.3c0,2.7,0.6,4.8,1.8,6.1  c1.2,1.3,3,2,5.5,2c1.9,0,3.7-0.3,5.4-1c0.3-0.1,0.6-0.2,0.7-0.2c0.1,0,0.2,0,0.3,0.1c0.1,0.1,0.1,0.2,0.1,0.3v0.6  c0,0.4-0.2,0.7-0.4,0.8C292.5,26.9,290.4,27.4,288.2,27.4 M293,15.5c0-0.4,0-0.8,0-1.3c0-1.9-0.5-3.3-1.4-4.3c-0.9-1-2.3-1.4-4-1.4  c-4.1,0-6.3,2.3-6.6,7H293z"></path>	<path class="st0" d="M300.7,26.8c-0.4,0-0.6-0.2-0.6-0.6V7.6c0-0.4,0.2-0.6,0.6-0.6h0.7c0.4,0,0.6,0.2,0.7,0.6l0.2,2.3  c1-1.1,2-1.9,2.9-2.3c1-0.5,2-0.7,3.2-0.7c0.4,0,0.8,0,1,0c0.4,0,0.6,0.2,0.6,0.6v1c0,0.1,0,0.2-0.1,0.3c-0.1,0.1-0.2,0.1-0.3,0.1  c-0.2,0-0.4,0-0.6,0c-0.2,0-0.5,0-0.8,0c-1.2,0-2.3,0.2-3.2,0.7c-0.9,0.4-1.8,1.2-2.7,2.2v14.5c0,0.4-0.2,0.6-0.6,0.6H300.7z"></path>	<path class="st0" d="M187.1,70.4c-0.4,0-0.6-0.2-0.6-0.6V51.3c0-0.4,0.2-0.6,0.6-0.6h0.8c0.4,0,0.6,0.2,0.7,0.6l0.2,1.7  c1.3-0.9,2.6-1.6,4-2.1c1.4-0.5,2.8-0.7,4.1-0.7c1.9,0,3.4,0.5,4.4,1.5c1,1,1.5,2.5,1.5,4.5v13.8c0,0.4-0.2,0.6-0.6,0.6h-1.1  c-0.4,0-0.6-0.2-0.6-0.6V57c0-1.7-0.3-2.9-1-3.7c-0.7-0.8-1.7-1.2-3.1-1.2c-2.6,0-5.2,0.8-7.7,2.5v15.2c0,0.4-0.2,0.6-0.6,0.6  H187.1z"></path>	<path class="st0" d="M217.2,71c-3.1,0-5.5-0.9-7-2.6c-1.6-1.8-2.4-4.4-2.4-7.9c0-3.3,0.8-5.9,2.4-7.7c1.6-1.8,3.8-2.7,6.7-2.7  c2.4,0,4.2,0.7,5.5,2c1.3,1.4,1.9,3.3,1.9,5.9c0,1-0.1,1.8-0.2,2.4c-0.1,0.4-0.3,0.6-0.7,0.6h-13.3c0,2.7,0.6,4.8,1.8,6.1  c1.2,1.3,3,2,5.5,2c1.9,0,3.7-0.3,5.4-1c0.3-0.1,0.6-0.2,0.7-0.2c0.1,0,0.2,0,0.3,0.1c0.1,0.1,0.1,0.2,0.1,0.3v0.6  c0,0.4-0.2,0.7-0.4,0.8C221.5,70.6,219.4,71,217.2,71 M222,59.1c0-0.4,0-0.8,0-1.3c0-1.9-0.5-3.3-1.4-4.3c-0.9-1-2.3-1.4-4-1.4  c-4.1,0-6.3,2.3-6.6,7H222z"></path>	<path class="st0" d="M235.2,70.7c-1.5,0-2.7-0.4-3.5-1.2c-0.8-0.8-1.2-2-1.2-3.6V52.6h-3.1c-0.4,0-0.6-0.2-0.6-0.6v-0.4  c0-0.2,0-0.4,0.1-0.5c0.1-0.1,0.2-0.2,0.5-0.2l3.2-0.3l0.3-5.2c0-0.2,0.1-0.4,0.2-0.5c0.1-0.1,0.2-0.1,0.4-0.1h0.7  c0.4,0,0.6,0.2,0.6,0.6v5.1h5.7c0.4,0,0.6,0.2,0.6,0.6v0.8c0,0.4-0.2,0.6-0.6,0.6h-5.7v13.1c0,1.1,0.2,1.8,0.7,2.3  c0.5,0.5,1.2,0.7,2.3,0.7c0.8,0,1.4-0.1,2-0.2c0.3,0,0.5-0.1,0.7-0.1c0.2,0,0.3-0.1,0.4-0.1c0.3,0,0.4,0.2,0.4,0.5v0.6  c0,0.4-0.1,0.7-0.4,0.8C237.8,70.5,236.6,70.7,235.2,70.7"></path>	<path class="st0" d="M248.1,70.4c-0.4,0-0.6-0.2-0.7-0.5l-6.2-18.3c-0.1-0.3-0.2-0.5-0.2-0.6c0-0.2,0.2-0.4,0.5-0.4h1.3  c0.3,0,0.6,0.2,0.7,0.5l5.4,16.7l4.8-16.6c0.1-0.4,0.4-0.5,0.7-0.5h1.4c0.4,0,0.6,0.2,0.7,0.5l4.7,16.7l5.5-16.8  c0.1-0.3,0.3-0.5,0.7-0.5h1.2c0.3,0,0.5,0.1,0.5,0.4c0,0.1-0.1,0.3-0.2,0.6l-6.4,18.3c-0.1,0.4-0.4,0.5-0.7,0.5h-1.3  c-0.4,0-0.6-0.2-0.7-0.5l-4.8-16.7l-4.7,16.7c-0.1,0.4-0.4,0.5-0.7,0.5H248.1z"></path>	<path class="st0" d="M280.7,71c-2.9,0-5.1-0.9-6.7-2.8c-1.6-1.9-2.4-4.4-2.4-7.7c0-3.3,0.8-5.9,2.4-7.7c1.6-1.8,3.8-2.8,6.7-2.8  c2.9,0,5.1,0.9,6.7,2.8c1.6,1.8,2.4,4.4,2.4,7.7c0,3.3-0.8,5.9-2.4,7.7C285.8,70.1,283.5,71,280.7,71 M280.7,69  c4.5,0,6.8-2.8,6.8-8.4c0-5.6-2.3-8.4-6.8-8.4c-4.5,0-6.8,2.8-6.8,8.4C273.9,66.2,276.1,69,280.7,69"></path>	<path class="st0" d="M295.5,70.4c-0.4,0-0.6-0.2-0.6-0.6V51.3c0-0.4,0.2-0.6,0.6-0.6h0.7c0.4,0,0.6,0.2,0.7,0.6l0.2,2.3  c1-1.1,2-1.9,2.9-2.3c1-0.5,2-0.7,3.2-0.7c0.4,0,0.8,0,1,0c0.4,0,0.6,0.2,0.6,0.6v1c0,0.1,0,0.2-0.1,0.3c-0.1,0.1-0.2,0.1-0.3,0.1  c-0.2,0-0.4,0-0.6,0c-0.2,0-0.5,0-0.8,0c-1.2,0-2.3,0.2-3.2,0.7c-0.9,0.4-1.8,1.2-2.7,2.2v14.5c0,0.4-0.2,0.6-0.6,0.6H295.5z"></path>	<path class="st0" d="M309,70.4c-0.4,0-0.6-0.2-0.6-0.6V42c0-0.4,0.2-0.6,0.6-0.6h1.1c0.4,0,0.6,0.2,0.6,0.6v17.5l9.4-8.4  c0.3-0.3,0.6-0.4,1-0.4h1.4c0.3,0,0.5,0.1,0.5,0.4c0,0.1-0.1,0.3-0.4,0.6L313,60l10.3,9.5c0.2,0.2,0.4,0.4,0.4,0.5  c0,0.3-0.2,0.4-0.5,0.4h-1.7c-0.3,0-0.6-0.1-0.9-0.4l-10-9.3v9.1c0,0.4-0.2,0.6-0.6,0.6H309z"></path></g></svg>